<svg id="Layer_1" data-name="Layer 1" xmlns="http://www.w3.org/2000/svg" xmlns:xlink="http://www.w3.org/1999/xlink" viewBox="0 0 268.23 276"><defs><style>.cls-1,.cls-3{fill:none;}.cls-2{clip-path:url(#clip-path);}.cls-3{stroke:#6495ed;stroke-miterlimit:10;}</style><clipPath id="clip-path"><rect class="cls-1" x="-671.48" y="-1573.98" width="1700" height="1500"/></clipPath></defs><g class="cls-2"><path class="cls-3" d="M693.85-455.6,586.07-600.67l-57.68-77.5-421.7-567.34L-72.25-1486.25H524.89c120.53,0,221.73,98.63,220.44,219.16-1,90.44-57.63,167.8-137.17,199.35L882.07-699.23c193.17-120.2,321.13-335.81,317.32-580.47-5.41-368.4-313.55-660.75-681.91-660.75H-594.47c-157.59,0-247.86,179.57-153.83,306l289,389,143.52,193.06,10.15,13.6L-112.3-778.77l2,2.68,729,975.36a225.47,225.47,0,0,0,180.6,90.48c66.74,0,123.21-27.38,163-69.36,70.73-74.63,88.73-195.43,18-290.64Z"/><path class="cls-3" d="M24.92,292.48a228.29,228.29,0,0,1-182.59-90.8l-638.53-845c-76.12-100.75-56.17-244.13,44.58-320.26s244.13-56.18,320.25,44.57L207.16-74c76.13,100.74,56.18,244.13-44.57,320.26A227.66,227.66,0,0,1,24.92,292.48Z"/></g><path d="M195.76,182.07l-12.89-17.35-6.9-9.28L125.52,87.57l-21.41-28.8h71.44c14.42,0,26.53,11.8,26.37,26.22a26,26,0,0,1-16.41,23.85l32.77,44.08a80.23,80.23,0,0,0,38-69.44c-.64-44.07-37.51-79.05-81.58-79.05h-133A22.93,22.93,0,0,0,23.23,41L57.81,87.57,75,110.67l1.22,1.63,23.12,31.11.24.32,87.22,116.69a27,27,0,0,0,21.6,10.82h0c22.18,0,34.88-25.27,21.65-43.07Z"/><path d="M115.74,271.57A27.31,27.31,0,0,1,93.89,260.7L17.5,159.61a27.35,27.35,0,0,1,43.65-33l76.39,101.09a27.35,27.35,0,0,1-21.8,43.85Z"/></svg>